<svg xmlns="http://www.w3.org/2000/svg" width="139.696" height="56.778" viewBox="0 0 139.696 56.778">
  <path id="Path_297" data-name="Path 297" d="M126.184,2226.5l-4.934,4.934,3.116,3.116H112.855l-.087-.606A45.133,45.133,0,0,0,67.848,2193a45.133,45.133,0,0,0-44.921,40.939l-.087.606H11.329l3.116-3.116L9.512,2226.5-2,2238.007l11.512,11.511,4.934-4.933-3.116-3.116H56.51l.173.433a11.824,11.824,0,0,0,11.165,7.876,11.885,11.885,0,0,0,6.838-2.164,11.4,11.4,0,0,0,4.328-5.712l.173-.433h45.18l-3.116,3.116,4.934,4.933,11.511-11.511Zm-58.25,16.358a5.145,5.145,0,0,1-3.462-1.385,4.832,4.832,0,0,1-1.385-3.462,5.145,5.145,0,0,1,1.385-3.462,4.833,4.833,0,0,1,3.462-1.385,5.146,5.146,0,0,1,3.462,1.385,4.833,4.833,0,0,1,1.385,3.462,5.146,5.146,0,0,1-1.385,3.462A4.832,4.832,0,0,1,67.935,2242.854Zm0-16.618a11.824,11.824,0,0,0-11.165,7.876l-.173.433H29.851l.087-.779A38.4,38.4,0,0,1,42.4,2209.531a38.139,38.139,0,0,1,63.357,24.235l.087.779H79.1l-.173-.433A11.906,11.906,0,0,0,74.6,2228.4a11.492,11.492,0,0,0-6.838-2.164Z" transform="translate(2 -2193)" fill="#3756a3"/>
</svg>
