<svg xmlns="http://www.w3.org/2000/svg" width="96.781" height="91.647" viewBox="0 0 96.781 91.647">
  <path id="Path_273" data-name="Path 273" d="M47.391,127.033A63.467,63.467,0,0,0,71.852,121.7a77.945,77.945,0,0,0,22.96-14.725,3.046,3.046,0,0,0,.969-2.228,3.233,3.233,0,0,0-.872-2.228,3.045,3.045,0,0,0-2.228-.969,3.233,3.233,0,0,0-2.228.872,76.62,76.62,0,0,1-21.168,13.515,56.021,56.021,0,0,1-21.846,4.747,56.611,56.611,0,0,1-21.991-4.844A73.689,73.689,0,0,1,4.425,102.378h0a3.321,3.321,0,0,0-2.228-.872,3.127,3.127,0,0,0-2.228.969h0A3.321,3.321,0,0,0-.9,104.7a3.127,3.127,0,0,0,.969,2.228,78.513,78.513,0,0,0,23.009,14.725,62.861,62.861,0,0,0,24.365,5.28Zm0-61.033a10.727,10.727,0,0,0-5.377,1.4,11.257,11.257,0,0,0-3.972,3.875c-4.6,7.7-6.878,12.836-8.041,16.227a16.416,16.416,0,0,0-1.114,5.716,18.5,18.5,0,0,0,37.007,0c0-1.6,0-6.539-9.155-21.943A10.506,10.506,0,0,0,52.767,67.4,10.727,10.727,0,0,0,47.391,66ZM59.549,93.223a12.207,12.207,0,0,1-24.413,0c0-.727.242-2.858,2.277-7.46a102.987,102.987,0,0,1,6.006-11.238,4.842,4.842,0,0,1,1.647-1.647,4.446,4.446,0,0,1,2.277-.581,5.01,5.01,0,0,1,2.277.581,4.443,4.443,0,0,1,1.647,1.647,117.991,117.991,0,0,1,6.006,11.238C59.307,90.365,59.549,92.5,59.549,93.223ZM92.584,142.34a3.149,3.149,0,1,0,0-6.3H2.149a3.149,3.149,0,1,0,0,6.3H24.431l-9.01,9.01H2.149a3.149,3.149,0,1,0,0,6.3H92.584a3.149,3.149,0,1,0,0-6.3H70.3l9.01-9.01Zm-58.95,0H47.439l-9.01,9.01h-14.1l9.01-9.01ZM61.1,151.35H47.294l9.01-9.01H70.4l-9.01,9.01Z" transform="translate(1 -66)" fill="#3756a3"/>
</svg>
