<svg xmlns="http://www.w3.org/2000/svg" width="97.266" height="97.072" viewBox="0 0 97.266 97.072">
  <path id="Path_271" data-name="Path 271" d="M3449.012,5841.743a3.483,3.483,0,0,0,1.211,1.163,3.222,3.222,0,0,0,1.647.436,3.048,3.048,0,0,0,.92-.145,2.576,2.576,0,0,0,.823-.388,3.278,3.278,0,0,0,1.5-2.083,3.2,3.2,0,0,0-.387-2.47c-.969-1.55-1.937-3.148-2.906-4.7a3.234,3.234,0,0,0-2.035-1.453,3.321,3.321,0,0,0-2.519.388h0a3.235,3.235,0,0,0-1.453,2.034,3.322,3.322,0,0,0,.387,2.519l2.858,4.65Zm3.342,63.6a3.1,3.1,0,0,0-2.519-.339,3.216,3.216,0,0,0-2.034,1.55l-2.81,4.8a3.1,3.1,0,0,0-.339,2.519,3.216,3.216,0,0,0,1.55,2.035,4.169,4.169,0,0,0,.823.339,2.675,2.675,0,0,0,.872.1,3.282,3.282,0,0,0,2.858-1.647l2.809-4.8a3.1,3.1,0,0,0,.339-2.519,3.309,3.309,0,0,0-1.5-2.034h-.048Zm-13.03-54.591-4.7-2.664a3.531,3.531,0,0,0-2.519-.339,3.335,3.335,0,0,0-1.986,1.55.048.048,0,0,1-.049.049,3.386,3.386,0,0,0-.291,2.47,3.582,3.582,0,0,0,1.55,2.034l4.7,2.665a5.393,5.393,0,0,0,.775.339,2.686,2.686,0,0,0,.872.1,3.28,3.28,0,0,0,2.858-1.646,3.535,3.535,0,0,0,.339-2.519A3.585,3.585,0,0,0,3439.324,5850.752ZM3519.539,5868a7.88,7.88,0,0,0-3.1-3.536,8.661,8.661,0,0,0-4.6-1.308h-7.8l15.743-26.205a3.574,3.574,0,0,0,.484-1.647,3.532,3.532,0,0,0-.436-1.7,3.226,3.226,0,0,0-1.211-1.211,3.273,3.273,0,0,0-1.7-.436h-22.766a3.279,3.279,0,0,0-2.858,1.647l-22.379,38.412a10.925,10.925,0,0,0-1.356,5.474,11.1,11.1,0,0,0,1.55,5.425,10.824,10.824,0,0,0,9.446,5.377h4.457c-3.294,9.155-6.442,18.6-9.93,27.659a5.567,5.567,0,0,0-.436,2.47,4.673,4.673,0,0,0,.727,2.229,5.209,5.209,0,0,0,2.035,1.792,6.189,6.189,0,0,0,2.858.63h.048a6.771,6.771,0,0,0,2.567-.533,6.547,6.547,0,0,0,2.131-1.4l.145-.146.145-.146c5.474-7.12,15.307-21.6,20.974-27.271a3.411,3.411,0,0,0,.63-2.422,3.186,3.186,0,0,0-1.259-2.18l-.049-.048a3.505,3.505,0,0,0-2.47-.678,3.187,3.187,0,0,0-2.18,1.259c-5.861,7.6-11.722,15.258-17.583,22.863l9.446-26.3a2.848,2.848,0,0,0,.145-1.55,2.726,2.726,0,0,0-.581-1.453,3.348,3.348,0,0,0-2.713-1.4h-9.2a4.374,4.374,0,0,1-2.567-.823,3.863,3.863,0,0,1-1.163-1.308,4.634,4.634,0,0,1-.63-2.131,4.2,4.2,0,0,1,.533-2.131c5.813-11.625,14.677-25.188,21.362-36.668h15.016l-15.743,26.206a3.574,3.574,0,0,0-.484,1.647,3.538,3.538,0,0,0,.436,1.7,3.231,3.231,0,0,0,1.211,1.211,3.273,3.273,0,0,0,1.7.436h13.66a1.911,1.911,0,0,1,.969.242,1.56,1.56,0,0,1,.678.727,1.4,1.4,0,0,1,.145.824,1.866,1.866,0,0,1-.436,1.017l-1.6,1.889a3.541,3.541,0,0,0-.775,2.422,3.707,3.707,0,0,0,1.163,2.277,3.542,3.542,0,0,0,2.422.775,3.708,3.708,0,0,0,2.277-1.163l1.55-1.841a8.8,8.8,0,0,0,1.986-4.311,7.974,7.974,0,0,0-.678-4.6Zm-51.491,28.966-.678-.1a22.742,22.742,0,0,1,1.017-44.854l.388-.048.436-.049a3.209,3.209,0,0,0,2.228-1.211,3.293,3.293,0,0,0,.727-2.422,3.209,3.209,0,0,0-1.211-2.228,3.293,3.293,0,0,0-2.422-.727l-.533.048-.533.048a29.388,29.388,0,0,0-18.019,9.736,29.26,29.26,0,0,0-7.314,19.375,29.318,29.318,0,0,0,23.978,28.87l.872.146.242.048h.242a3.3,3.3,0,0,0,2.18-.823,3.405,3.405,0,0,0,1.114-1.986,3.334,3.334,0,0,0-.581-2.47,3.286,3.286,0,0,0-2.18-1.308Zm-32.648-22.476a3.3,3.3,0,0,0-.969-2.325,3.411,3.411,0,0,0-2.374-.969h-5.764a3.3,3.3,0,0,0-2.325.969,3.384,3.384,0,0,0-.969,2.325,3.294,3.294,0,0,0,.969,2.325,3.384,3.384,0,0,0,2.325.969h5.764a3.294,3.294,0,0,0,2.325-.969,3.411,3.411,0,0,0,.969-2.374Zm36.135-36.136a3.293,3.293,0,0,0,2.325-.969,3.382,3.382,0,0,0,.969-2.325v-5.765a3.293,3.293,0,0,0-.969-2.325,3.41,3.41,0,0,0-2.374-.969,3.293,3.293,0,0,0-2.325.969,3.41,3.41,0,0,0-.969,2.374v5.764a3.5,3.5,0,0,0,.969,2.374,3.384,3.384,0,0,0,2.325.969Zm-35.99,53.235-4.747,2.616a3.243,3.243,0,0,0-1.6,1.986,3.282,3.282,0,0,0,.291,2.519,3.366,3.366,0,0,0,1.211,1.259,3.6,3.6,0,0,0,1.7.484,4.276,4.276,0,0,0,.824-.1,5.054,5.054,0,0,0,.775-.291l4.844-2.664a3.243,3.243,0,0,0,1.6-1.986,3.283,3.283,0,0,0-.291-2.519v-.048a3.337,3.337,0,0,0-1.986-1.55,3.282,3.282,0,0,0-2.519.291l-.1.048Z" transform="translate(-3423 -5826)" fill="#3756a3"/>
</svg>
