<svg xmlns="http://www.w3.org/2000/svg" width="94.429" height="94.342" viewBox="0 0 94.429 94.342">
  <path id="Path_296" data-name="Path 296" d="M348.937,13.243V0h-7.357V13.243h-7.357V0h-7.357V13.243H319.51V27.61a11.045,11.045,0,0,0,11.079,11.079h2.943V63.357a23.612,23.612,0,0,1-43.623,12.55h.606c12.723,0,18.955-6.318,21.984-11.6,3.116-5.539,3.808-11.858,3.808-16.185a37.509,37.509,0,0,0-4.068-16.185c-5.626-12.117-16.272-22.763-23.8-29.688h0L286.014,0l-4.847,5.193h-.087V5.28l-.087.087.087.087V9.607c0,7.53-4.068,15.666-12.464,24.754A28.767,28.767,0,0,0,261,53.143a21,21,0,0,0,1.9,9A20.468,20.468,0,0,0,280.128,73.4a4.966,4.966,0,0,1,.606.346A31.7,31.7,0,0,0,288,85.254a30.485,30.485,0,0,0,21.9,9.088,31.01,31.01,0,0,0,30.986-30.986V38.689h3.462A11.045,11.045,0,0,0,355.429,27.61V13.243ZM278.83,63.357c0,.866,0,1.731.087,2.6a12.806,12.806,0,0,1-9.348-6.751,12.4,12.4,0,0,1-1.212-5.886,20.929,20.929,0,0,1,5.626-13.848,65.767,65.767,0,0,0,11.165-15.753,35.39,35.39,0,0,0,3.029-9.78c7.011,9.607,2.51,18.609-2.683,29.082C282.205,49.595,278.83,56.346,278.83,63.357Zm7.876,4.847a22.474,22.474,0,0,1-.519-4.847c0-5.28,2.856-10.992,5.886-17.051,2.77-5.626,5.712-11.425,6.665-17.57a22.139,22.139,0,0,0,.346-4.068,59.591,59.591,0,0,1,6.4,10.473c2.25,4.847,3.376,9.088,3.376,13.069,0,3.462-.519,8.4-2.856,12.55-2.943,5.28-8.049,7.79-15.493,7.79a23.692,23.692,0,0,1-3.722-.346ZM347.985,27.61a3.694,3.694,0,0,1-3.722,3.722H330.415a3.694,3.694,0,0,1-3.722-3.722V20.6H347.9V27.61Z" transform="translate(-261)" fill="#3756a3"/>
</svg>
