<svg xmlns="http://www.w3.org/2000/svg" width="98.041" height="98.041" viewBox="0 0 98.041 98.041">
  <path id="Path_269" data-name="Path 269" d="M13522.5,79.762l-7.653-30.662a2.907,2.907,0,0,0-2.81-2.18h-77.018a2.952,2.952,0,0,0-2.811,2.18l-7.652,30.662a2.975,2.975,0,0,0,.532,2.47,2.894,2.894,0,0,0,2.276,1.114h34.828l-2.422,9.978h-5.426a2.858,2.858,0,0,0,0,5.716h38.316a2.858,2.858,0,0,0,0-5.716h-5.426l-2.422-9.978h34.828a2.823,2.823,0,0,0,2.276-1.114,2.975,2.975,0,0,0,.532-2.47Zm-77.7-44.322h8.815a17.778,17.778,0,0,0,.969,3.827,2.868,2.868,0,0,0,2.713,1.938h32.454a2.868,2.868,0,0,0,2.713-1.938,21.184,21.184,0,0,0,.969-3.827h8.815a2.858,2.858,0,1,0,0-5.716h-8.815a19.8,19.8,0,0,0-3.827-9.155l6.249-6.249a2.877,2.877,0,0,0-4.069-4.069l-6.248,6.249a20.316,20.316,0,0,0-9.155-3.827V3.858a2.858,2.858,0,0,0-5.716,0v8.816a19.794,19.794,0,0,0-9.154,3.827l-6.249-6.249a2.877,2.877,0,0,0-4.069,4.069l6.249,6.249a20.322,20.322,0,0,0-3.827,9.155h-8.815a2.858,2.858,0,1,0,0,5.716ZM13473.53,18.2a14.388,14.388,0,0,1,14.386,14.386,13.98,13.98,0,0,1-.29,2.858h-28.144a14.7,14.7,0,0,1-.291-2.858,14.389,14.389,0,0,1,14.387-14.386Zm2.857,34.489h13.854l1.211,9.591h-15.016V52.685Zm-19.569,0h13.854v9.591h-15.016l1.211-9.591Zm-8.912,24.9h-16.857l2.373-9.591h15.646l-1.211,9.591Zm1.938-15.307h-14.968l2.373-9.591h13.757l-1.211,9.591Zm3.875,15.307,1.211-9.591h15.742v9.591Zm12.013,15.694,2.422-9.978h10.8l2.422,9.978h-15.646Zm10.705-15.694V67.991h15.743l1.21,9.591Zm19.618-24.9h13.756l2.374,9.591h-14.968l-1.211-9.591Zm3.1,24.9-1.211-9.591h15.646l2.374,9.591h-16.809Z" transform="translate(-13424.485 -1)" fill="#3756a3"/>
</svg>
