<svg xmlns="http://www.w3.org/2000/svg" width="98.041" height="98.089" viewBox="0 0 98.041 98.089">
  <path id="Path_272" data-name="Path 272" d="M6848.206,11005.318h-8.864l-6.2-6.2v-.048a9.109,9.109,0,1,0-10.753-8.962,9.3,9.3,0,0,0,1.889,5.57h-11.334a4.4,4.4,0,0,0-3.2,1.356l-9.01,9.01a4.555,4.555,0,0,0,6.442,6.442l7.653-7.653h6.588l-6.491,25.14-8.428-3.148a4.553,4.553,0,1,0-3.2,8.525l13.175,4.94a4.536,4.536,0,0,0,6.006-3.2l1.938-7.944,17.874,17.874a4.555,4.555,0,0,0,6.442-6.442l-21.507-21.507,2.422-10.511,4.553,4.553a4.559,4.559,0,0,0,3.2,1.356h10.754a4.553,4.553,0,1,0,0-9.106Zm-52.8,50.813h-12.3v-12.3a2.955,2.955,0,0,0-5.91,0v15.308a2.936,2.936,0,0,0,2.955,2.954h15.307a2.955,2.955,0,1,0,0-5.909Zm76.582-15.307a2.936,2.936,0,0,0-2.955,2.955v12.3h-12.3a2.955,2.955,0,0,0,0,5.91h15.307a2.935,2.935,0,0,0,2.955-2.955v-15.307a2.936,2.936,0,0,0-2.955-2.955Zm-15.307-70.866h12.3v12.3a2.955,2.955,0,0,0,5.91,0v-15.307a2.936,2.936,0,0,0-2.955-2.955h-15.307a2.955,2.955,0,1,0,0,5.909Zm-61.324-5.909h-15.307a2.936,2.936,0,0,0-2.955,2.954v15.307a2.955,2.955,0,0,0,5.91,0v-12.3h12.3a2.955,2.955,0,1,0,0-5.909Zm-12.788,32.551a19.061,19.061,0,0,0,0,26.932,2.98,2.98,0,0,0,4.214-4.214,13.215,13.215,0,0,1,0-18.6,2.98,2.98,0,0,0-4.214-4.214Zm11.383,4.5a2.981,2.981,0,0,0-4.214,0,12.63,12.63,0,0,0,0,17.922,2.98,2.98,0,0,0,4.214-4.214,6.824,6.824,0,0,1-1.986-4.795,6.91,6.91,0,0,1,1.986-4.8,2.982,2.982,0,0,0,0-4.214Zm75.517,22.476a19.06,19.06,0,0,0,0-26.932,2.98,2.98,0,0,0-4.214,4.214,13.214,13.214,0,0,1,0,18.6,2.98,2.98,0,0,0,4.214,4.214Zm-11.383-4.5a2.983,2.983,0,0,0,4.214,0,12.746,12.746,0,0,0,0-17.971,2.98,2.98,0,0,0-4.214,4.214,6.754,6.754,0,0,1,0,9.591,2.984,2.984,0,0,0,0,4.215Z" transform="translate(-6777 -10964)" fill="#3756a3"/>
</svg>
