<svg xmlns="http://www.w3.org/2000/svg" width="98.089" height="95.619" viewBox="0 0 98.089 95.619">
  <path id="Path_268" data-name="Path 268" d="M6849.693,91.683h-3V73.761a23.881,23.881,0,0,0-47.761,0V91.683h-3a3,3,0,1,0,0,6.006h8.961v20.926a3,3,0,0,0,6.007,0V97.69h23.88v20.926a3,3,0,1,0,6.006,0V97.69h8.961a3,3,0,1,0,0-6.006ZM6846.012,46.3l8.428-8.428,4.214,4.214-8.429,8.428Zm-59.1-4.214,4.214-4.214,8.429,8.428-4.214,4.214ZM6819.806,26h5.958V37.964h-5.958ZM6775,72.162h11.964V78.12H6775Zm86.125,0h11.964V78.12h-11.964Zm-56.286,19.569V73.809a17.923,17.923,0,0,1,35.845,0V91.732Z" transform="translate(-6775 -26)" fill="#3756a3"/>
</svg>
